<svg xmlns="http://www.w3.org/2000/svg" version="1.1" viewBox="-5.0 -10.0 110.0 135.0">
 <path d="m97.367 50c0 4.6719-5.4727 8.7891-14.316 11.652-1.9688 0.64062-4.1172 1.2227-6.4102 1.7383 0.95703 2.1484 1.7695 4.2227 2.4297 6.1914 2.9805 8.8086 2.9375 15.641-0.80859 18.43-3.7461 2.7891-10.316 0.85156-17.895-4.5352-3.2852-2.3359-6.8008-5.3359-10.367-8.875-3.5703 3.5352-7.0742 6.5352-10.367 8.875-7.5781 5.3906-14.137 7.3281-17.895 4.5352-3.7578-2.7891-3.7891-9.6328-0.80859-18.43 0.66406-1.9688 1.4727-4.0312 2.4297-6.1914-2.293-0.51562-4.4414-1.0938-6.4102-1.7383-8.8516-2.8633-14.316-6.9805-14.316-11.652s5.4727-8.7891 14.316-11.652c1.9688-0.64062 4.1172-1.2227 6.4102-1.7383-0.95703-2.1484-1.7695-4.2227-2.4297-6.1914-2.9805-8.8086-2.9375-15.641 0.80859-18.43 3.7461-2.7891 10.316-0.85156 17.895 4.5352 3.2852 2.3359 6.8008 5.3359 10.367 8.875 3.5703-3.5352 7.0742-6.5352 10.367-8.875 7.5781-5.3906 14.137-7.3281 17.895-4.5352 3.7578 2.7891 3.7891 9.6328 0.80859 18.43-0.66406 1.9688-1.4727 4.0312-2.4297 6.1914 2.293 0.51562 4.4414 1.0938 6.4102 1.7383 8.8516 2.8633 14.316 6.9805 14.316 11.652zm-47.367-7.2734c-2.0117 0-3.832 0.80859-5.1484 2.125-1.3164 1.3164-2.125 3.1367-2.125 5.1484s0.80859 3.832 2.125 5.1484c1.3164 1.3164 3.1367 2.125 5.1484 2.125s3.832-0.80859 5.1484-2.125c1.3164-1.3164 2.125-3.1367 2.125-5.1484s-0.80859-3.832-2.125-5.1484c-1.3164-1.3164-3.1367-2.125-5.1484-2.125zm3.5781 3.707c-0.91406-0.91406-2.1797-1.4844-3.5781-1.4844s-2.6641 0.57031-3.5781 1.4844c-0.91406 0.91406-1.4844 2.1797-1.4844 3.5781 0 1.3984 0.57031 2.6641 1.4844 3.5781 0.91406 0.91406 2.1797 1.4844 3.5781 1.4844s2.6641-0.57031 3.5781-1.4844c0.91406-0.91406 1.4844-2.1797 1.4844-3.5781 0-1.3984-0.57031-2.6641-1.4844-3.5781zm-5.125 26.602c-2.1367-2.1992-4.293-4.6016-6.4219-7.1484-5.9375-0.33594-11.496-1.0312-16.441-2.0195-1.0117 2.2422-1.8633 4.3906-2.5469 6.4219-2.6641 7.8633-2.8516 13.809 0.03125 15.957 2.8945 2.1484 8.5273 0.25391 15.285-4.5703 3.1992-2.2734 6.6094-5.1914 10.094-8.6406zm3.1172-46.062c2.1367 2.1992 4.293 4.6016 6.4219 7.1562 5.9375 0.33594 11.496 1.0312 16.441 2.0195 1.0117-2.2422 1.8633-4.3906 2.5469-6.4219 2.6641-7.8633 2.8516-13.809-0.03125-15.957-2.8945-2.1484-8.5273-0.25391-15.285 4.5703-3.1992 2.2734-6.6094 5.1914-10.094 8.6406zm24.137 11.695c-1.7148 3.6211-3.8008 7.4297-6.2305 11.336 2.4219 3.8945 4.5156 7.7148 6.2305 11.336 2.3984-0.52734 4.6328-1.125 6.6719-1.7891 7.8945-2.5586 12.777-5.9375 12.777-9.5469s-4.8828-6.9883-12.777-9.5469c-2.043-0.66406-4.2734-1.2617-6.6719-1.7891zm-7.5469 13.41c-1.6094 2.4961-3.3594 5.0117-5.2305 7.5273-1 1.3477-2.0117 2.6523-3.0312 3.9375 4.8633-0.34766 9.4297-0.9375 13.57-1.7383-1.4961-3.1172-3.2734-6.3789-5.3164-9.7148zm-10.168 13.801c-2.125 2.5586-4.2852 4.9492-6.4219 7.1484 3.4844 3.4531 6.8945 6.3672 10.094 8.6406 6.7695 4.8086 12.398 6.7148 15.285 4.5703 2.8945-2.1484 2.6953-8.0859 0.03125-15.957-0.68359-2.0312-1.5352-4.1797-2.5469-6.4219-4.957 0.98828-10.516 1.6836-16.441 2.0195zm-33.672-4.5469c1.7148-3.6211 3.8008-7.4297 6.2305-11.336-2.4219-3.8945-4.5156-7.7148-6.2305-11.336-2.3984 0.52734-4.6328 1.125-6.6719 1.7891-7.8945 2.5586-12.777 5.9375-12.777 9.5469s4.8828 6.9883 12.777 9.5469c2.043 0.66406 4.2734 1.2617 6.6719 1.7891zm7.5469-13.41c1.6094-2.4961 3.3594-5.0117 5.2305-7.5273 1-1.3477 2.0117-2.6523 3.0312-3.9375-4.8633 0.34766-9.4297 0.9375-13.57 1.7383 1.4961 3.1172 3.2734 6.3789 5.3164 9.7148zm10.168-13.801c2.125-2.5586 4.2852-4.9492 6.4219-7.1484-3.4844-3.4531-6.8945-6.3672-10.094-8.6406-6.7695-4.8086-12.398-6.7148-15.285-4.5703-2.8945 2.1484-2.6953 8.0859-0.03125 15.957 0.68359 2.0312 1.5352 4.1797 2.5469 6.4219 4.957-0.98828 10.516-1.6836 16.441-2.0195zm7.9805-5.5781c-1.6523 1.707-3.3047 3.5156-4.957 5.4414 1.6328-0.050781 3.2852-0.085937 4.957-0.085937s3.3281 0.03125 4.957 0.085937c-1.6523-1.9258-3.3164-3.7383-4.957-5.4414zm-6.8945 7.7461c-1.4297 1.7383-2.8438 3.5469-4.2422 5.4297-2.0625 2.7695-3.9688 5.5469-5.7148 8.2852 1.7383 2.7383 3.6523 5.5039 5.7148 8.2852 1.3984 1.8828 2.8086 3.6953 4.2422 5.4297 2.2539 0.10547 4.5469 0.16797 6.8945 0.16797s4.6523-0.050781 6.8945-0.16797c1.4297-1.7383 2.8438-3.5469 4.2422-5.4297 2.0625-2.7695 3.9688-5.5469 5.7148-8.2852-1.7383-2.7383-3.6523-5.5039-5.7148-8.2852-1.3984-1.8828-2.8086-3.6953-4.2422-5.4297-2.2539-0.10547-4.5469-0.16797-6.8945-0.16797s-4.6523 0.050781-6.8945 0.16797zm-11.254 15.789c-2.043 3.3359-3.8203 6.6016-5.3164 9.7148 4.1367 0.80078 8.707 1.3984 13.57 1.7383-1.0195-1.2734-2.0312-2.5898-3.0312-3.9375-1.875-2.5156-3.6094-5.0312-5.2305-7.5273zm18.148 19.379c1.6523-1.707 3.3047-3.5156 4.957-5.4414-1.6328 0.050781-3.2852 0.085937-4.957 0.085937s-3.3359-0.03125-4.957-0.085937c1.6523 1.9258 3.3164 3.7383 4.957 5.4414zm18.148-23.535c2.043-3.3359 3.8203-6.6016 5.3164-9.7148-4.1367-0.80078-8.707-1.3984-13.57-1.7383 1.0195 1.2734 2.0312 2.5898 3.0312 3.9375 1.875 2.5156 3.6094 5.0312 5.2305 7.5273z" fill-rule="evenodd"/>
<text x="0.0" y="117.5" font-size="5.0" font-weight="bold" font-family="Arbeit Regular, Helvetica, Arial-Unicode, Arial, Sans-serif" fill="#000000">Created by tc_official</text><text x="0.0" y="122.5" font-size="5.0" font-weight="bold" font-family="Arbeit Regular, Helvetica, Arial-Unicode, Arial, Sans-serif" fill="#000000">from Noun Project</text></svg>